<svg xmlns="http://www.w3.org/2000/svg" xmlns:xlink="http://www.w3.org/1999/xlink" viewBox="0 0 969 915.98"><defs><style>.cls-1{isolation:isolate;}.cls-2,.cls-5,.cls-6,.cls-8{mix-blend-mode:multiply;}.cls-2{fill:url(#radial-gradient);}.cls-3,.cls-5,.cls-6,.cls-8{fill:#02d587;}.cls-4{fill:#fff;}.cls-5,.cls-7{opacity:0.3;}.cls-6{opacity:0.5;}.cls-7{fill:#ffbe6e;mix-blend-mode:screen;}</style><radialGradient id="radial-gradient" cx="540.49" cy="921.5" r="424.49" gradientTransform="translate(-51 -241.29) scale(1 0.86)" gradientUnits="userSpaceOnUse"><stop offset="0.28" stop-color="#02d587"/><stop offset="0.38" stop-color="#33dd9e" stop-opacity="0.81"/><stop offset="0.54" stop-color="#7be9c0" stop-opacity="0.52"/><stop offset="0.69" stop-color="#b4f3db" stop-opacity="0.3"/><stop offset="0.82" stop-color="#ddf9ef" stop-opacity="0.13"/><stop offset="0.93" stop-color="#f6fdfb" stop-opacity="0.04"/><stop offset="1" stop-color="#fff" stop-opacity="0"/></radialGradient></defs><title>covid-19</title><g class="cls-1"><g id="Layer_1" data-name="Layer 1"><ellipse class="cls-2" cx="489.49" cy="551.01" rx="424.5" ry="364.97"/><circle class="cls-3" cx="484.5" cy="456.89" r="271.08"/><circle class="cls-4" cx="484.5" cy="456.89" r="157.4"/><path class="cls-3" d="M498.59,343.89c-10.8-14.87.85-35.37,5.53-83.33a368.84,368.84,0,0,0-.53-76.35q-6.3-27.72-12.59-55.45c-1.88-5.3-7-21.74-.24-34.7,12.26-23.33,56.25-22,67.12-.47,4.85,9.61,2.18,21.41.19,27.77q-.84,8-1.63,16.09-2.31,23.52-4,46.42a368.45,368.45,0,0,0,.53,76.35c5.34,47.89,17.27,68.23,6.68,83.25C547.23,361,511.21,361.26,498.59,343.89Z" transform="translate(-51 -77.02)"/><path class="cls-3" d="M244.34,161.8c18.76,3,23.11,26.79,51.59,65.74a336.19,336.19,0,0,0,51.8,56.09l47.5,31.72c5.1,2.52,20.35,10.87,23.55,25.5,5.76,26.32-30.84,57.82-54.12,50-10.39-3.51-16.17-14.22-18.83-20.4q-4.69-6.54-9.5-13.11-14-19.11-28-37.33a336.85,336.85,0,0,0-51.8-56.1c-36.55-31.48-59.91-37.71-61.42-56.65C193.38,185.1,222.43,158.27,244.34,161.8Z" transform="translate(-51 -77.02)"/><path class="cls-3" d="M649.76,364.22c-7.86-26.5,15.61-31.59,54.76-71.93a362.48,362.48,0,0,0,46.14-58.59,30.17,30.17,0,0,0,1.73-3.15l23.09-48.48a26.8,26.8,0,0,0,1-2.55c2.25-6.3,8.43-20.6,21-26,24.28-10.5,58.48,18.42,53.77,42.13-1.89,9.53-9.76,16.6-15.35,20.62a31.8,31.8,0,0,0-4,3.51q-4.54,4.61-9.08,9.28-16.47,17-32.1,33.79a362.87,362.87,0,0,0-47.09,60.1c-29.79,47.66-29.12,71.67-56.73,70.38A40.42,40.42,0,0,1,649.76,364.22Z" transform="translate(-51 -77.02)"/><path class="cls-3" d="M63.09,441.79c19.59-18.38,35.17-.64,89.15,14.92a378,378,0,0,0,73.36,13.46,30.74,30.74,0,0,0,3.59.08l53.56-1.71c.93,0,1.84-.12,2.75-.23,6.6-.86,22.1-1.91,32.79,6.37,20.72,16.05,11.43,57.94-11.65,64.38-9.29,2.59-19.22-1-25.41-4a31.66,31.66,0,0,0-5-1.87q-6.19-1.83-12.45-3.63-22.71-6.55-44.9-12.45a379,379,0,0,0-75.13-13.6c-56-4.35-76.82,6.81-88.73-17.27A37.4,37.4,0,0,1,63.09,441.79Z" transform="translate(-51 -77.02)"/><path class="cls-3" d="M120.21,759.58c-.07-27.54,23.84-25.94,72.68-53.75a364.41,364.41,0,0,0,60.68-43.37,29,29,0,0,0,2.54-2.54q17.88-20,35.75-40a27.13,27.13,0,0,0,1.72-2.16c3.93-5.4,13.87-17.4,27.39-19.13,26.21-3.35,50.84,33.8,39.66,55.2-4.5,8.6-14,13.2-20.51,15.51a32.55,32.55,0,0,0-4.83,2.25q-5.62,3.16-11.3,6.39-20.55,11.68-40.25,23.48a364.87,364.87,0,0,0-62,44.55c-41.93,37.42-48,60.59-74.13,51.74A40.08,40.08,0,0,1,120.21,759.58Z" transform="translate(-51 -77.02)"/><path class="cls-3" d="M357.28,974.56c-14.73-22,4.83-34.82,28.22-85.88a387.94,387.94,0,0,0,24.35-70.49,30.94,30.94,0,0,0,.64-3.54l6.63-53.12c.11-.91.17-1.83.2-2.74.19-6.64,1.58-22.09,11.23-31.46,18.72-18.15,57.77-3,60.42,20.72,1.07,9.53-3.93,18.83-7.77,24.51a31.88,31.88,0,0,0-2.58,4.65q-2.73,5.85-5.44,11.77-9.84,21.48-19,42.54a387.93,387.93,0,0,0-24.77,72.23c-12.87,54.67-5.31,76.81-30.43,85.12A35.83,35.83,0,0,1,357.28,974.56Z" transform="translate(-51 -77.02)"/><path class="cls-3" d="M633.84,714.05c26.32,9.33,16.25,31.3,25.34,86.78a356.85,356.85,0,0,0,19.73,71.92,29.37,29.37,0,0,0,1.51,3.27q12.74,23.65,25.45,47.32a27.13,27.13,0,0,0,1.45,2.36c3.75,5.54,11.65,19,8.47,32.31-6.16,25.83-50.42,36.34-66.85,18.51-6.61-7.17-7.6-17.7-7.49-24.6a30.51,30.51,0,0,0-.42-5.31q-1-6.39-2.06-12.82-3.81-23.34-8-45.92a357.66,357.66,0,0,0-20.38-73.58c-20.73-52.25-40.67-65.92-22.9-87.45A41.6,41.6,0,0,1,633.84,714.05Z" transform="translate(-51 -77.02)"/><path class="cls-3" d="M719.22,627.24c24.94-11.6,33.55,10.75,79.3,43.38a365,365,0,0,0,64.85,36.85,28.94,28.94,0,0,0,3.37,1.24l51.34,15.65c.89.27,1.78.48,2.69.66,6.55,1.3,21.6,5.28,28.86,16.82,14.06,22.35-9.26,60.22-33.36,59-9.7-.47-17.87-7.18-22.69-12.09a32,32,0,0,0-4.08-3.44q-5.24-3.78-10.54-7.57Q859.71,764,840.74,751.12a365.56,365.56,0,0,0-66.48-37.56c-51.56-22.35-75.15-18.2-78.09-45.54A39.91,39.91,0,0,1,719.22,627.24Z" transform="translate(-51 -77.02)"/><path class="cls-3" d="M746.61,465.38c16.41-22.58,34.62-6.7,90.4.32a357.06,357.06,0,0,0,74.56,1.49,30.54,30.54,0,0,0,3.56-.52l52.6-11a26.89,26.89,0,0,0,2.67-.71c6.38-2,21.52-5.79,33.39,1,23,13.23,20.54,58.63-1.22,69.32-8.74,4.3-19.12,2.26-25.71.2a30.77,30.77,0,0,0-5.21-1.11q-6.42-.84-12.88-1.66-23.46-3-46.31-5.31a356.73,356.73,0,0,0-76.34-1.34c-56,5-74.75,20.28-90.35-2.86A41.54,41.54,0,0,1,746.61,465.38Z" transform="translate(-51 -77.02)"/><path class="cls-3" d="M444.25,317.79c-11.74-6.12-9.69-22.86-20.41-55a241.15,241.15,0,0,0-22.53-48.62q-12.37-15.75-24.74-31.49c-2.84-2.8-11.16-11.69-10.25-22.1,1.64-18.74,32.24-31.62,45.94-21.29,6.12,4.62,7.72,13,8.2,17.68q1.74,5.37,3.55,10.79,5.25,15.75,10.71,30.93a241.05,241.05,0,0,0,22.53,48.61c17.57,28.93,31.67,38.2,28.76,51.11C482.61,313.52,458,324.94,444.25,317.79Z" transform="translate(-51 -77.02)"/><path class="cls-3" d="M599.4,314.33c-5.54-12.24,7-23.83,19.13-55.44A231.4,231.4,0,0,0,631.81,207q.18-20.07.37-40.13c-.49-4-1.47-16.17,6-23.6,13.5-13.39,46.69-3.68,51.1,13.07,2,7.48-2.17,15-4.83,18.88q-2.07,5.25-4.12,10.59-6,15.5-11.38,30.69a230.83,230.83,0,0,0-13.28,51.92c-4.52,33.56.9,49.75-9.84,57.83C633.31,335.65,605.88,328.63,599.4,314.33Z" transform="translate(-51 -77.02)"/><path class="cls-3" d="M901.45,343.05c-5.82,12.12-22.75,10-54.78,21a232.31,232.31,0,0,0-48.32,23.18l-31,25.51c-2.73,2.92-11.44,11.5-22,10.53-18.93-1.74-32.82-33.41-22.81-47.55,4.46-6.32,12.86-7.95,17.56-8.43q5.37-1.8,10.77-3.65,15.72-5.39,30.84-11a232.14,232.14,0,0,0,48.31-23.18c28.63-18.1,37.55-32.65,50.64-29.61C896,303.37,908.25,328.9,901.45,343.05Z" transform="translate(-51 -77.02)"/><path class="cls-3" d="M940,616.69c-11,7.72-24.71-2.44-58-8.51a231.14,231.14,0,0,0-53.48-3.42l-39.51,7.09c-3.81,1.21-15.6,4.43-24.3-1.55C749,599.52,752.36,565.1,768,557.66c7-3.33,15.1-.64,19.44,1.24Q793,560,798.62,561q16.33,3,32.27,5.49a231.36,231.36,0,0,0,53.48,3.41c33.82-1.78,48.72-10.11,58.65-1.06C954.62,579.41,952.81,607.67,940,616.69Z" transform="translate(-51 -77.02)"/><path class="cls-3" d="M765.47,839.16c-12.74-4.31-12.66-21.37-27.47-51.83a230.8,230.8,0,0,0-28.89-45.13L680,714.54c-3.23-2.36-12.81-10-13.13-20.52-.57-19,29.18-36.64,44.43-28.43,6.81,3.67,9.45,11.8,10.5,16.41q2.43,5.12,4.93,10.25,7.26,14.94,14.67,29.27a231.39,231.39,0,0,0,28.88,45.14c21.45,26.21,37,33.29,35.55,46.65C804.19,828.92,780.34,844.18,765.47,839.16Z" transform="translate(-51 -77.02)"/><path class="cls-3" d="M252.55,806.66c2.28-13.25,19.15-15.81,46.94-35.17A231.51,231.51,0,0,0,339.61,736q11.4-16.51,22.82-33c1.82-3.56,7.85-14.2,18.23-16.15,18.68-3.51,40.72,23.14,35,39.49-2.56,7.3-10.19,11.16-14.59,12.92q-4.67,3.18-9.35,6.45-13.63,9.5-26.65,19a231.46,231.46,0,0,0-40.11,35.53c-22.57,25.25-27.16,41.69-40.58,42.35C268.67,843.33,249.89,822.13,252.55,806.66Z" transform="translate(-51 -77.02)"/><path class="cls-3" d="M504.79,923.15c-8.48-10.43.69-24.83,4.39-58.49a231,231,0,0,0-.37-53.59q-4.94-19.44-9.86-38.9c-1.48-3.72-5.52-15.26-.17-24.36,9.65-16.38,44.22-15.44,52.75-.36,3.81,6.73,1.7,15,.13,19.48q-.66,5.63-1.29,11.3-1.82,16.5-3.2,32.58a231.16,231.16,0,0,0,.37,53.59c4.17,33.6,13.53,47.87,5.2,58.42C543,935.14,514.69,935.33,504.79,923.15Z" transform="translate(-51 -77.02)"/><path class="cls-3" d="M308.59,585.2c-9.09,9.25-24.61,3.3-58.38,5.29a254.57,254.57,0,0,0-52.86,8.78l-37,15c-3.46,1.92-14.28,7.37-24,4-17.54-6.07-21.53-37.24-7.85-47.27,6.11-4.48,14.59-3.89,19.22-3.19q5.64-.28,11.34-.62,16.56-1,32.63-2.27a254.27,254.27,0,0,0,52.86-8.79c32.6-9,45.36-19.69,56.95-13.87C315,549,319.22,574.4,308.59,585.2Z" transform="translate(-51 -77.02)"/><path class="cls-3" d="M325.38,437.83c-12.78,1.5-21.41-12.59-49.24-31.8a261,261,0,0,0-47-25.74L190.87,369c-3.89-.66-15.72-3.13-21.36-11.7-10.16-15.42,5.59-41.74,22.46-41,7.53.32,13.86,6,17.09,9.35q4.62,3.25,9.31,6.49,13.65,9.42,27.1,18.3a261,261,0,0,0,47,25.73c31.18,13.09,47.7,12.77,53.32,24.35C352.36,414.05,340.3,436.08,325.38,437.83Z" transform="translate(-51 -77.02)"/><path class="cls-5" d="M709.19,685.78a16.65,16.65,0,1,1-16.64-16.64A16.64,16.64,0,0,1,709.19,685.78Z" transform="translate(-51 -77.02)"/><path class="cls-5" d="M405.83,646.09A17.84,17.84,0,1,1,388,628.26,17.83,17.83,0,0,1,405.83,646.09Z" transform="translate(-51 -77.02)"/><path class="cls-6" d="M420.69,494.16a32.1,32.1,0,1,1-32.09-32.1A32.09,32.09,0,0,1,420.69,494.16Z" transform="translate(-51 -77.02)"/><path class="cls-6" d="M628.59,442.36a25,25,0,1,1-25-25A25,25,0,0,1,628.59,442.36Z" transform="translate(-51 -77.02)"/><path class="cls-6" d="M620.88,574.82a13.08,13.08,0,1,1-13.08-13.08A13.08,13.08,0,0,1,620.88,574.82Z" transform="translate(-51 -77.02)"/><path class="cls-7" d="M693.76,533.48A28.54,28.54,0,1,1,665.23,505,28.53,28.53,0,0,1,693.76,533.48Z" transform="translate(-51 -77.02)"/><circle class="cls-5" cx="502.18" cy="666.74" r="11.61"/><path class="cls-8" d="M448.36,363a12.41,12.41,0,1,1-12.4-12.4A12.4,12.4,0,0,1,448.36,363Z" transform="translate(-51 -77.02)"/><path class="cls-5" d="M780.67,482.12a28.53,28.53,0,1,1-28.53-28.53A28.53,28.53,0,0,1,780.67,482.12Z" transform="translate(-51 -77.02)"/><path class="cls-5" d="M662,346.36a13.52,13.52,0,1,1-13.52-13.52A13.52,13.52,0,0,1,662,346.36Z" transform="translate(-51 -77.02)"/></g><g id="Layer_2" data-name="Layer 2"><path class="cls-6" d="M537.59,655.36a25,25,0,1,1-25-25A25,25,0,0,1,537.59,655.36Z" transform="translate(-51 -77.02)"/></g></g></svg>